<svg width="512" height="512" viewBox="0 0 512 512" fill="none" xmlns="http://www.w3.org/2000/svg">
<path d="M170.186 502.986C131.726 502.986 102.28 492.65 81.8479 471.977C61.416 451.065 51.2 418.013 51.2 372.823V185.33H0V104.924H51.2V9.0141H165.859V104.924H234.006V185.33H165.859V372.462C165.859 386.404 168.864 396.379 174.873 402.389C181.123 408.158 189.536 411.042 200.113 411.042C205.401 411.042 210.809 410.682 216.338 409.961C221.867 409.239 226.915 408.518 231.482 407.797L240.135 492.53C229.318 495.654 217.9 498.178 205.882 500.101C194.103 502.024 182.205 502.986 170.186 502.986Z" />
<path d="M300.71 314.051V225.352H512V314.051H300.71Z" />
<style xmlns="http://www.w3.org/2000/svg">
  path {
    fill: black;
  }

  @media (prefers-color-scheme: dark) {
    path {
      fill: white
    }
  }
</style>
</svg>
