<svg width="512" height="512" viewBox="0 0 512 512" fill="none" xmlns="http://www.w3.org/2000/svg">
<path d="M191.304 442C162.309 442 140.109 434.216 124.706 418.648C109.302 402.899 101.6 378.009 101.6 343.977V202.78H63V142.228H101.6V70H188.042V142.228H239.418V202.78H188.042V343.705C188.042 354.204 190.308 361.717 194.838 366.242C199.55 370.587 205.892 372.759 213.866 372.759C217.853 372.759 221.931 372.488 226.099 371.945C230.267 371.401 234.072 370.858 237.515 370.315L244.039 434.126C235.885 436.479 227.277 438.38 218.215 439.828C209.336 441.276 200.365 442 191.304 442Z" />
<path d="M289.707 299.717V232.92H449V299.717H289.707Z" />
<style xmlns="http://www.w3.org/2000/svg">
  path {
    fill: black;
  }

  @media (prefers-color-scheme: dark) {
    path {
      fill: white
    }
  }
</style>
</svg>
